<svg xmlns="http://www.w3.org/2000/svg" xmlns:xlink="http://www.w3.org/1999/xlink" version="1.1" x="0px" y="0px" viewBox="0 0 100 125" enable-background="new 0 0 100 100" xml:space="preserve"><g display="none"><rect x="-60.877" y="-997.172" display="inline" fill="#000000" width="1370.931" height="1263.231"/></g><g><g><path d="M89.941,58.372c-1.997,11.062-8.491,20.577-17.523,26.571l1.426,2.953c10.108-6.563,17.349-17.174,19.406-29.524H89.941z"/><path d="M26.794,88.212l1.481-2.918c-9.315-5.969-16.034-15.638-18.07-26.922H6.897C8.987,70.921,16.429,81.676,26.794,88.212z"/><path d="M50.073,10.636c7.579,0,14.676,2.096,20.749,5.732l3.184-1.841c-6.884-4.513-15.105-7.148-23.933-7.148    c-8.657,0-16.728,2.536-23.529,6.889l3.207,1.854C35.73,12.641,42.67,10.636,50.073,10.636z"/><path d="M20.448,54.284c5.451,0,10.706-1.958,14.813-5.515c0.368-0.266,0.606-0.7,0.606-1.19c0-0.143-0.027-0.278-0.065-0.409    l0.014-0.004c-1.543-5.304-6.475-9.009-11.993-9.009h-1.122c4.078-1.011,7.114-4.692,7.114-9.078c0-5.163-4.2-9.363-9.362-9.363    c-5.163,0-9.363,4.2-9.363,9.363c0,4.386,3.036,8.067,7.114,9.078h-1.188c-5.499,0-10.421,3.693-11.967,8.982l0.012,0.004    C5.025,47.268,5,47.397,5,47.533c0,0.442,0.199,0.845,0.512,1.12l-0.003,0.003C9.635,52.285,14.94,54.284,20.448,54.284z     M34.408,47.576L34.408,47.576L34.408,47.576L34.408,47.576z"/><path d="M95,47.579c0-0.143-0.027-0.278-0.065-0.409l0.014-0.004c-1.543-5.304-6.475-9.009-11.993-9.009h-1.122    c4.078-1.011,7.114-4.692,7.114-9.078c0-5.163-4.2-9.363-9.363-9.363s-9.363,4.2-9.363,9.363c0,4.386,3.036,8.067,7.114,9.078    h-1.188c-5.33,0-10.107,3.474-11.805,8.503c-0.054,0.16-0.114,0.316-0.162,0.479l0.012,0.004    c-0.035,0.125-0.059,0.254-0.059,0.391c0,0.33,0.111,0.638,0.298,0.887c0.063,0.085,0.135,0.163,0.214,0.233l-0.003,0.003    c4.126,3.629,9.431,5.627,14.939,5.627c5.45,0,10.704-1.957,14.811-5.513C94.761,48.505,95,48.07,95,47.579z M93.541,47.576    L93.541,47.576C93.541,47.576,93.541,47.576,93.541,47.576L93.541,47.576z"/><path d="M65.509,85.917c0-0.143-0.027-0.278-0.065-0.408l0.014-0.004c-1.543-5.304-6.475-9.009-11.994-9.009H52.34    c4.079-1.01,7.116-4.692,7.116-9.078c0-4.013-2.543-7.435-6.098-8.764c-1.018-0.381-2.115-0.599-3.264-0.599    c-1.016,0-1.993,0.168-2.91,0.469c-3.741,1.228-6.452,4.748-6.452,8.894c0,4.387,3.037,8.068,7.116,9.078h-1.19    c-5.499,0-10.421,3.693-11.967,8.981l0.012,0.004c-0.035,0.125-0.059,0.254-0.059,0.391c0,0.442,0.199,0.846,0.512,1.12    l-0.003,0.003c4.124,3.629,9.43,5.627,14.938,5.627c5.451,0,10.706-1.958,14.813-5.515C65.271,86.84,65.509,86.406,65.509,85.917z     M36.096,85.888C36.096,85.888,36.096,85.888,36.096,85.888L36.096,85.888L36.096,85.888z"/></g></g><text x="0" y="115" fill="#000000" font-size="5px" font-weight="bold" font-family="'Helvetica Neue', Helvetica, Arial-Unicode, Arial, Sans-serif">Created by Oksana Latysheva</text><text x="0" y="120" fill="#000000" font-size="5px" font-weight="bold" font-family="'Helvetica Neue', Helvetica, Arial-Unicode, Arial, Sans-serif">from the Noun Project</text></svg>